<?xml version="1.0" encoding="UTF-8" standalone="no"?>
<!-- Created with Inkscape (http://www.inkscape.org/) -->

<svg
   xmlns:ns0="http://www.iki.fi/pav/software/textext/"
   xmlns:dc="http://purl.org/dc/elements/1.1/"
   xmlns:cc="http://creativecommons.org/ns#"
   xmlns:rdf="http://www.w3.org/1999/02/22-rdf-syntax-ns#"
   xmlns:svg="http://www.w3.org/2000/svg"
   xmlns="http://www.w3.org/2000/svg"
   xmlns:sodipodi="http://sodipodi.sourceforge.net/DTD/sodipodi-0.dtd"
   xmlns:inkscape="http://www.inkscape.org/namespaces/inkscape"
   width="272.22595"
   height="127.87585"
   id="svg2"
   version="1.1"
   inkscape:version="0.48.1 "
   sodipodi:docname="Новый документ 1">
  <sodipodi:namedview
     id="base"
     pagecolor="#ffffff"
     bordercolor="#666666"
     borderopacity="1.0"
     inkscape:pageopacity="0.0"
     inkscape:pageshadow="2"
     inkscape:zoom="1.979899"
     inkscape:cx="276.38911"
     inkscape:cy="21.164397"
     inkscape:document-units="px"
     inkscape:current-layer="layer1"
     showgrid="false"
     inkscape:snap-grids="true"
     inkscape:window-width="1315"
     inkscape:window-height="826"
     inkscape:window-x="100"
     inkscape:window-y="100"
     inkscape:window-maximized="0"
     fit-margin-top="0"
     fit-margin-left="0"
     fit-margin-right="0"
     fit-margin-bottom="0" />
  <defs
     id="defs4">
    <inkscape:path-effect
       effect="spiro"
       id="path-effect3043"
       is_visible="true" />
    <inkscape:path-effect
       effect="spiro"
       id="path-effect3019"
       is_visible="true" />
    <inkscape:path-effect
       effect="spiro"
       id="path-effect3015"
       is_visible="true" />
    <inkscape:path-effect
       effect="spiro"
       id="path-effect3011"
       is_visible="true" />
    <inkscape:path-effect
       effect="spiro"
       id="path-effect3007"
       is_visible="true" />
    <inkscape:path-effect
       effect="spiro"
       id="path-effect3001"
       is_visible="true" />
    <inkscape:path-effect
       effect="spiro"
       id="path-effect2997"
       is_visible="true" />
    <inkscape:path-effect
       effect="spiro"
       id="path-effect2993"
       is_visible="true" />
  </defs>
  <metadata
     id="metadata7">
    <rdf:RDF>
      <cc:Work
         rdf:about="">
        <dc:format>image/svg+xml</dc:format>
        <dc:type
           rdf:resource="http://purl.org/dc/dcmitype/StillImage" />
        <dc:title></dc:title>
      </cc:Work>
    </rdf:RDF>
  </metadata>
  <g
     inkscape:label="Layer 1"
     inkscape:groupmode="layer"
     id="layer1"
     transform="translate(-10.106602,-12.818577)">
    <path
       style="fill:none;stroke:#000000;stroke-width:1px;stroke-linecap:butt;stroke-linejoin:miter;stroke-opacity:1"
       d="M 10.606602,140.19443 281.83256,112.92031 C 274.73246,88.720638 260.88188,66.539809 242.25435,49.538317 223.62682,32.536826 200.2766,20.764188 175.5308,15.897861 150.785,11.031533 124.71571,13.085689 101.03746,21.767636 77.359212,30.449582 56.14098,45.734034 40.406098,65.443145 23.426061,86.711905 12.915618,113.07709 10.606602,140.19443"
       id="path3041"
       inkscape:path-effect="#path-effect3043"
       inkscape:original-d="m 10.606602,140.19443 c 56.063466,122.22846 271.225958,-27.27412 271.225958,-27.27412 0,0 -211.626962,-121.2183007 -241.426462,-47.477165 C 10.606602,139.18428 14.647212,122.51676 10.606602,140.19443 z"
       inkscape:connector-curvature="0" />
    <g
       style="font-style:normal;font-variant:normal;font-weight:normal;font-stretch:normal;letter-spacing:normal;word-spacing:normal;text-anchor:start;fill:none;stroke:#000000;stroke-linecap:butt;stroke-linejoin:miter;stroke-miterlimit:10.43299961;stroke-opacity:1;stroke-dasharray:none;stroke-dashoffset:0"
       id="content"
       transform="matrix(2,0,0,-2,-203.52533,1460.6041)"
       xml:space="preserve"
       stroke-miterlimit="10.433"
       font-style="normal"
       font-variant="normal"
       font-weight="normal"
       font-stretch="normal"
       font-size-adjust="none"
       letter-spacing="normal"
       word-spacing="normal"
       ns0:text="$S$\n"
       ns0:preamble="">
<path
   style="fill:#000000;stroke-width:0"
   inkscape:connector-curvature="0"
   d="m 229.86,714.05 0,0 0,0 0,0.01 0,0 0,0 0,0.01 -0.01,0 0,0 0,0.01 0,0 0,0.01 0,0 -0.01,0.01 0,0 0,0 0,0.01 -0.01,0 0,0.01 0,0 -0.01,0 0,0.01 -0.01,0 0,0 -0.01,0 0,0.01 0,0 -0.01,0 0,0 0,0 -0.01,0 0,0 0,0 -0.01,0 0,0 -0.01,0.01 0,0 0,0 -0.01,0 0,0 c -0.05,0 -0.06,-0.01 -0.18,-0.15 l -0.48,-0.57 c -0.26,0.47 -0.78,0.72 -1.42,0.72 -1.27,0 -2.46,-1.15 -2.46,-2.36 0,-0.8 0.52,-1.26 1.03,-1.41 l 1.07,-0.28 c 0.37,-0.09 0.92,-0.24 0.92,-1.06 0,-0.89 -0.82,-1.83 -1.8,-1.83 -0.64,0 -1.74,0.22 -1.74,1.46 0,0.24 0.05,0.48 0.06,0.54 0.01,0.03 0.02,0.05 0.02,0.06 0,0.1 -0.07,0.11 -0.12,0.11 -0.05,0 -0.07,-0.01 -0.1,-0.04 -0.04,-0.04 -0.6,-2.31 -0.6,-2.34 0,-0.06 0.05,-0.1 0.11,-0.1 0.05,0 0.06,0.01 0.18,0.15 l 0.49,0.57 c 0.43,-0.58 1.1,-0.72 1.68,-0.72 1.36,0 2.53,1.33 2.53,2.56 0,0.69 -0.34,1.03 -0.49,1.17 -0.22,0.23 -0.38,0.27 -1.26,0.5 -0.22,0.06 -0.58,0.16 -0.67,0.18 -0.27,0.09 -0.61,0.37 -0.61,0.9 0,0.81 0.8,1.66 1.75,1.66 0.82,0 1.43,-0.43 1.43,-1.55 0,-0.32 -0.04,-0.49 -0.04,-0.55 0,-0.01 0,-0.11 0.12,-0.11 0.1,0 0.11,0.04 0.15,0.2 z"
   id="path3060" />
</g>    <g
       ns0:preamble=""
       ns0:text="$\\Omega$\n"
       word-spacing="normal"
       letter-spacing="normal"
       font-size-adjust="none"
       font-stretch="normal"
       font-weight="normal"
       font-variant="normal"
       font-style="normal"
       stroke-miterlimit="10.433"
       xml:space="preserve"
       transform="matrix(2,0,0,-2,-316.66241,1498.4848)"
       id="g3092"
       style="font-style:normal;font-variant:normal;font-weight:normal;font-stretch:normal;letter-spacing:normal;word-spacing:normal;text-anchor:start;fill:none;stroke:#000000;stroke-linecap:butt;stroke-linejoin:miter;stroke-miterlimit:10.43299961;stroke-opacity:1;stroke-dasharray:none;stroke-dashoffset:0">
<path
   id="path3094"
   d="m 230.18,708.74 h -0.25 c -0.05,-0.26 -0.09,-0.49 -0.18,-0.73 -0.05,-0.16 -0.08,-0.24 -0.66,-0.24 h -0.8 c 0.13,0.56 0.44,1.04 0.89,1.69 0.47,0.71 0.88,1.4 0.88,2.19 0,1.38 -1.35,2.5 -3.03,2.5 -1.71,0 -3.04,-1.14 -3.04,-2.5 0,-0.79 0.41,-1.48 0.88,-2.19 0.43,-0.65 0.75,-1.13 0.88,-1.69 h -0.79 c -0.58,0 -0.61,0.08 -0.66,0.23 -0.08,0.23 -0.13,0.49 -0.18,0.74 h -0.25 l 0.33,-1.62 h 1.59 c 0.22,0 0.25,0 0.25,0.21 0,0.7 -0.31,1.58 -0.53,2.21 -0.21,0.58 -0.49,1.37 -0.49,2.12 0,1.59 1.09,2.27 2,2.27 0.96,0 2.01,-0.72 2.01,-2.27 0,-0.75 -0.27,-1.51 -0.56,-2.33 -0.15,-0.41 -0.46,-1.31 -0.46,-2 0,-0.21 0.03,-0.21 0.25,-0.21 h 1.59 z"
   inkscape:connector-curvature="0"
   style="fill:#000000;stroke-width:0" />
</g>  </g>
</svg>
