<?xml version="1.0" encoding="UTF-8" standalone="no"?>
<!-- Created with Inkscape (http://www.inkscape.org/) -->

<svg
   xmlns:ns0="http://www.iki.fi/pav/software/textext/"
   xmlns:dc="http://purl.org/dc/elements/1.1/"
   xmlns:cc="http://creativecommons.org/ns#"
   xmlns:rdf="http://www.w3.org/1999/02/22-rdf-syntax-ns#"
   xmlns:svg="http://www.w3.org/2000/svg"
   xmlns="http://www.w3.org/2000/svg"
   xmlns:sodipodi="http://sodipodi.sourceforge.net/DTD/sodipodi-0.dtd"
   xmlns:inkscape="http://www.inkscape.org/namespaces/inkscape"
   width="94.972183"
   height="117.11844"
   id="svg2"
   version="1.1"
   inkscape:version="0.48.1 "
   sodipodi:docname="Новый документ 1">
  <sodipodi:namedview
     id="base"
     pagecolor="#ffffff"
     bordercolor="#666666"
     borderopacity="1.0"
     inkscape:pageopacity="0.0"
     inkscape:pageshadow="2"
     inkscape:zoom="3.959798"
     inkscape:cx="26.08072"
     inkscape:cy="87.391726"
     inkscape:document-units="px"
     inkscape:current-layer="svg2"
     showgrid="false"
     inkscape:window-width="1173"
     inkscape:window-height="690"
     inkscape:window-x="75"
     inkscape:window-y="75"
     inkscape:window-maximized="0"
     fit-margin-top="0"
     fit-margin-left="0"
     fit-margin-right="0"
     fit-margin-bottom="0" />
  <defs
     id="defs4">
    <inkscape:path-effect
       bendpath1-nodetypes="cc"
       bendpath4="m 11.217444,98.128691 0,190.359349"
       bendpath3="m 11.217444,288.48804 308.763256,0"
       bendpath2="m 319.9807,98.128691 0,190.359349"
       bendpath1="M -1.1794081,83.901887 C 158.55376,256.04767 234.11479,216.50767 283.99485,100.73904"
       xx="true"
       yy="true"
       is_visible="true"
       id="path-effect3875"
       effect="envelope" />
    <inkscape:path-effect
       bendpath-nodetypes="cc"
       vertical="false"
       scale_y_rel="false"
       prop_scale="1"
       bendpath="m 30.809647,108.12209 c 100.759143,136.96256 188.390343,113.27536 268.700593,0"
       is_visible="true"
       id="path-effect3873"
       effect="bend_path" />
    <inkscape:path-effect
       is_visible="true"
       id="path-effect3101"
       effect="spiro" />
    <inkscape:path-effect
       is_visible="true"
       id="path-effect3097"
       effect="spiro" />
    <inkscape:path-effect
       is_visible="true"
       id="path-effect3093"
       effect="spiro" />
    <inkscape:path-effect
       is_visible="true"
       id="path-effect3089"
       effect="spiro" />
    <inkscape:path-effect
       is_visible="true"
       id="path-effect3085"
       effect="spiro" />
    <inkscape:path-effect
       is_visible="true"
       id="path-effect3081"
       effect="spiro" />
    <inkscape:path-effect
       is_visible="true"
       id="path-effect3077"
       effect="spiro" />
    <inkscape:path-effect
       is_visible="true"
       id="path-effect3073"
       effect="spiro" />
    <inkscape:path-effect
       is_visible="true"
       id="path-effect3069"
       effect="spiro" />
    <inkscape:path-effect
       is_visible="true"
       id="path-effect3065"
       effect="spiro" />
    <inkscape:path-effect
       is_visible="true"
       id="path-effect3061"
       effect="spiro" />
    <inkscape:path-effect
       is_visible="true"
       id="path-effect3057"
       effect="spiro" />
    <inkscape:path-effect
       is_visible="true"
       id="path-effect3053"
       effect="spiro" />
    <inkscape:path-effect
       is_visible="true"
       id="path-effect3049"
       effect="spiro" />
    <inkscape:path-effect
       is_visible="true"
       id="path-effect3045"
       effect="spiro" />
    <inkscape:path-effect
       is_visible="true"
       id="path-effect3041"
       effect="spiro" />
    <inkscape:path-effect
       is_visible="true"
       id="path-effect3037"
       effect="spiro" />
    <inkscape:path-effect
       is_visible="true"
       id="path-effect3033"
       effect="spiro" />
    <inkscape:path-effect
       is_visible="true"
       id="path-effect3029"
       effect="spiro" />
    <inkscape:path-effect
       is_visible="true"
       id="path-effect3025"
       effect="spiro" />
    <inkscape:path-effect
       is_visible="true"
       id="path-effect3021"
       effect="spiro" />
    <inkscape:path-effect
       is_visible="true"
       id="path-effect3017"
       effect="spiro" />
    <inkscape:path-effect
       is_visible="true"
       id="path-effect3013"
       effect="spiro" />
    <inkscape:path-effect
       is_visible="true"
       id="path-effect3009"
       effect="spiro" />
    <inkscape:path-effect
       is_visible="true"
       id="path-effect3005"
       effect="spiro" />
  </defs>
  <metadata
     id="metadata7">
    <rdf:RDF>
      <cc:Work
         rdf:about="">
        <dc:format>image/svg+xml</dc:format>
        <dc:type
           rdf:resource="http://purl.org/dc/dcmitype/StillImage" />
        <dc:title></dc:title>
      </cc:Work>
    </rdf:RDF>
  </metadata>
  <g
     id="layer1"
     inkscape:groupmode="layer"
     inkscape:label="Layer 1"
     transform="translate(-73.461234,-54.768778)">
    <path
       inkscape:path-effect="#path-effect3875"
       transform="matrix(0.26668377,-0.2807336,0.19363984,0.38663062,40.319986,84.21594)"
       d="m 319.95203,193.2969 c 1.7e-4,5.87186 -0.5136,11.25908 -1.49141,16.30205 -0.97781,5.04297 -2.42307,9.76009 -4.47153,14.4033 -2.04846,4.6432 -4.70941,9.22452 -8.20767,13.87636 -3.49826,4.65185 -7.84557,9.37721 -13.19275,14.07404 0,0 -10e-6,0 -10e-6,0 -4.32352,3.80734 -9.33499,7.60117 -15.0201,11.22465 -5.68511,3.62348 -12.044,7.07113 -18.90501,10.14522 -5.05501,2.28001 -10.41571,4.32863 -15.94927,6.09289 -5.53356,1.76426 -11.23649,3.24338 -16.96303,4.43422 -5.02495,1.03616 -10.02781,1.81663 -14.96839,2.41236 -4.94058,0.59573 -9.81833,1.00897 -14.6451,1.31577 -5.09009,0.31754 -10.11388,0.5317 -15.17582,0.67909 -5.06194,0.14739 -10.16511,0.22883 -15.40022,0.22871 -0.0159,0 -0.0318,-1e-5 -0.0477,-1e-5 -6.70421,-8.2e-4 -13.43244,-0.14202 -20.23263,-0.50521 -6.80019,-0.36319 -13.66974,-0.95149 -20.52133,-1.8318 -10.17557,-1.30326 -20.34212,-3.25477 -30.070693,-5.8785 -9.728574,-2.62372 -18.999744,-5.91354 -27.392319,-9.69215 -5.478427,-2.46416 -10.598102,-5.13596 -15.288392,-7.94821 -4.69029,-2.81225 -8.950868,-5.76371 -12.754268,-8.79181 -7.606801,-6.05621 -13.351128,-12.38405 -17.499892,-18.77613 -4.148764,-6.39209 -6.737077,-12.85588 -8.331918,-19.68239 -1.594842,-6.82652 -2.230438,-14.06582 -2.230498,-22.07019 -3e-5,-4.00219 0.166486,-8.0759 0.500666,-12.18094 0.334179,-4.10505 0.837061,-8.24109 1.539122,-12.30679 1.404122,-8.1314 3.608401,-16.00451 6.971455,-22.29743 1.681527,-3.14646 3.653056,-5.88956 5.947552,-8.05803 2.294495,-2.16847 4.912196,-3.76003 7.868738,-4.64365 2.956542,-0.88363 6.251796,-1.05743 9.88326,-0.46238 3.631463,0.59505 7.598686,1.96004 11.885473,4.05933 3.282754,1.6096 6.760365,3.65259 10.423139,6.0642 3.662774,2.41162 7.510437,5.1916 11.533535,8.23467 8.046196,6.08613 16.785316,13.24548 26.20753,20.2676 6.34419,4.73218 13.02337,9.39675 20.03718,13.47167 7.01381,4.07491 14.36184,7.55074 22.10507,9.94946 0.0183,0.006 0.0367,0.0114 0.055,0.017 6.04805,1.86903 12.21094,3.01558 18.42969,3.33054 6.21875,0.31497 12.49426,-0.20285 18.79847,-1.54715 11.95342,-2.55854 23.84441,-8.22613 34.96608,-15.26514 6.34003,-4.03374 12.38403,-8.42041 18.10719,-12.70701 5.72315,-4.2866 11.12385,-8.47066 16.18149,-12.2111 6.86457,-5.05883 13.18442,-9.23123 18.97217,-12.10435 5.78776,-2.87312 11.04033,-4.45053 15.75109,-4.70649 0,0 0,0 1e-5,0 5.82528,-0.3121 10.86688,1.36511 15.08362,4.52206 4.21674,3.15696 7.60618,7.76919 10.21255,13.09251 2.60637,5.32331 4.43268,11.33735 5.60401,17.4083 1.17133,6.07095 1.6956,12.18897 1.69577,18.06083 0,0 0,0 0,0 z"
       sodipodi:ry="103.11223"
       sodipodi:rx="134.3503"
       sodipodi:cy="108.12209"
       sodipodi:cx="165.15994"
       id="path3103"
       style="fill:none;stroke:#000000;stroke-width:2.52000856;stroke-linecap:butt;stroke-miterlimit:4;stroke-opacity:1;stroke-dasharray:none;stroke-dashoffset:0"
       sodipodi:type="arc" />
    <path
       transform="translate(-7.5761441,-2.5253814)"
       d="m 162.12948,84.383507 c 0,4.602607 -3.95728,8.333758 -8.83883,8.333758 -4.88155,0 -8.83884,-3.731151 -8.83884,-8.333758 0,-4.602608 3.95729,-8.333759 8.83884,-8.333759 4.88155,0 8.83883,3.731151 8.83883,8.333759 z"
       sodipodi:ry="8.3337584"
       sodipodi:rx="8.8388348"
       sodipodi:cy="84.383507"
       sodipodi:cx="153.29065"
       id="path3877"
       style="fill:none;stroke:#000000;stroke-width:1;stroke-linecap:butt;stroke-miterlimit:4;stroke-opacity:1;stroke-dasharray:none;stroke-dashoffset:0"
       sodipodi:type="arc" />
    <path
       transform="translate(-9.5964501,5.0507609)"
       d="m 162.12948,84.383507 c 0,4.602607 -3.95728,8.333758 -8.83883,8.333758 -4.88155,0 -8.83884,-3.731151 -8.83884,-8.333758 0,-4.602608 3.95729,-8.333759 8.83884,-8.333759 4.88155,0 8.83883,3.731151 8.83883,8.333759 z"
       sodipodi:ry="8.3337584"
       sodipodi:rx="8.8388348"
       sodipodi:cy="84.383507"
       sodipodi:cx="153.29065"
       id="path3877-5"
       style="fill:none;stroke:#000000;stroke-width:1;stroke-linecap:butt;stroke-miterlimit:4;stroke-opacity:1;stroke-dasharray:none;stroke-dashoffset:0"
       sodipodi:type="arc" />
    <path
       transform="matrix(0.49347312,0,0,0.45289433,35.684438,67.802527)"
       d="m 119.70308,139.5631 c 0,1.32499 -1.18718,2.39911 -2.65165,2.39911 -1.46447,0 -2.65165,-1.07412 -2.65165,-2.39911 0,-1.325 1.18718,-2.39912 2.65165,-2.39912 1.46447,0 2.65165,1.07412 2.65165,2.39912 z"
       sodipodi:ry="2.3991122"
       sodipodi:rx="2.6516504"
       sodipodi:cy="139.5631"
       sodipodi:cx="117.05143"
       id="path3907"
       style="fill:#000000;stroke:#000000;stroke-width:1;stroke-linecap:butt;stroke-miterlimit:4;stroke-opacity:1;stroke-dasharray:none;stroke-dashoffset:0"
       sodipodi:type="arc" />
    <path
       transform="matrix(0.49347312,0,0,0.45289433,62.698957,65.875421)"
       d="m 119.70308,139.5631 c 0,1.32499 -1.18718,2.39911 -2.65165,2.39911 -1.46447,0 -2.65165,-1.07412 -2.65165,-2.39911 0,-1.325 1.18718,-2.39912 2.65165,-2.39912 1.46447,0 2.65165,1.07412 2.65165,2.39912 z"
       sodipodi:ry="2.3991122"
       sodipodi:rx="2.6516504"
       sodipodi:cy="139.5631"
       sodipodi:cx="117.05143"
       id="path3907-0"
       style="fill:#000000;stroke:#000000;stroke-width:1;stroke-linecap:butt;stroke-miterlimit:4;stroke-opacity:1;stroke-dasharray:none;stroke-dashoffset:0"
       sodipodi:type="arc" />
    <path
       transform="matrix(0.49347312,0,0,0.45289433,80.629164,49.460442)"
       d="m 119.70308,139.5631 c 0,1.32499 -1.18718,2.39911 -2.65165,2.39911 -1.46447,0 -2.65165,-1.07412 -2.65165,-2.39911 0,-1.325 1.18718,-2.39912 2.65165,-2.39912 1.46447,0 2.65165,1.07412 2.65165,2.39912 z"
       sodipodi:ry="2.3991122"
       sodipodi:rx="2.6516504"
       sodipodi:cy="139.5631"
       sodipodi:cx="117.05143"
       id="path3907-1"
       style="fill:#000000;stroke:#000000;stroke-width:1;stroke-linecap:butt;stroke-miterlimit:4;stroke-opacity:1;stroke-dasharray:none;stroke-dashoffset:0"
       sodipodi:type="arc" />
    <path
       transform="matrix(0.49347312,0,0,0.45289433,85.427389,26.73201)"
       d="m 119.70308,139.5631 c 0,1.32499 -1.18718,2.39911 -2.65165,2.39911 -1.46447,0 -2.65165,-1.07412 -2.65165,-2.39911 0,-1.325 1.18718,-2.39912 2.65165,-2.39912 1.46447,0 2.65165,1.07412 2.65165,2.39912 z"
       sodipodi:ry="2.3991122"
       sodipodi:rx="2.6516504"
       sodipodi:cy="139.5631"
       sodipodi:cx="117.05143"
       id="path3907-3"
       style="fill:#000000;stroke:#000000;stroke-width:1;stroke-linecap:butt;stroke-miterlimit:4;stroke-opacity:1;stroke-dasharray:none;stroke-dashoffset:0"
       sodipodi:type="arc" />
    <path
       transform="matrix(0.49347312,0,0,0.45289433,87.95277,18.145713)"
       d="m 119.70308,139.5631 c 0,1.32499 -1.18718,2.39911 -2.65165,2.39911 -1.46447,0 -2.65165,-1.07412 -2.65165,-2.39911 0,-1.325 1.18718,-2.39912 2.65165,-2.39912 1.46447,0 2.65165,1.07412 2.65165,2.39912 z"
       sodipodi:ry="2.3991122"
       sodipodi:rx="2.6516504"
       sodipodi:cy="139.5631"
       sodipodi:cx="117.05143"
       id="path3907-39"
       style="fill:#000000;stroke:#000000;stroke-width:1;stroke-linecap:butt;stroke-miterlimit:4;stroke-opacity:1;stroke-dasharray:none;stroke-dashoffset:0"
       sodipodi:type="arc" />
    <path
       inkscape:connector-curvature="0"
       id="path3948"
       d="m 93.691649,130.85052 26.516501,-1.76776 18.43529,-16.66752 4.29315,-22.728434 2.77791,-8.333759"
       style="fill:none;stroke:#000000;stroke-width:1px;stroke-linecap:butt;stroke-linejoin:miter;stroke-opacity:1" />
  </g>
  <g
     ns0:preamble=""
     ns0:text="$M^{(0)}$\n"
     word-spacing="normal"
     letter-spacing="normal"
     font-size-adjust="none"
     font-stretch="normal"
     font-weight="normal"
     font-variant="normal"
     font-style="normal"
     stroke-miterlimit="10.433"
     xml:space="preserve"
     transform="matrix(0.5,0,0,-0.5,-91.638878,436.6513)"
     id="content"
     style="font-style:normal;font-variant:normal;font-weight:normal;font-stretch:normal;letter-spacing:normal;word-spacing:normal;text-anchor:start;fill:none;stroke:#000000;stroke-linecap:butt;stroke-linejoin:miter;stroke-miterlimit:10.43299961;stroke-opacity:1;stroke-dasharray:none;stroke-dashoffset:0">
<path
   id="path4180"
   d="m 232.66,713.16 0.01,0.03 0,0.03 0.01,0.03 0.01,0.03 0.01,0.03 0.01,0.03 0.01,0.02 0,0.02 0.01,0.02 0.02,0.02 0.01,0.02 0.01,0.02 0.02,0.02 0.01,0.01 0.02,0.02 0.02,0.01 0.02,0.02 0.02,0.01 0.03,0.01 0.03,0.01 0.03,0.01 0.02,0 0.01,0 0.02,0.01 0.02,0 0.02,0 0.02,0.01 0.02,0 0.02,0 0.02,0 0.03,0.01 0.02,0 0.02,0 0.03,0 0.03,0 0.02,0 0.03,0.01 0.03,0 0.03,0 0.03,0 0.04,0 0.03,0 0.03,0 c 0.23,0 0.32,0 0.32,0.2 0,0.11 -0.1,0.11 -0.27,0.11 h -1.31 c -0.26,0 -0.27,0 -0.39,-0.19 l -3.63,-5.68 -0.78,5.64 c -0.03,0.23 -0.05,0.23 -0.31,0.23 h -1.37 c -0.19,0 -0.29,0 -0.29,-0.19 0,-0.12 0.08,-0.12 0.28,-0.12 0.13,0 0.31,-0.01 0.43,-0.02 0.16,-0.02 0.22,-0.05 0.22,-0.16 0,-0.04 -0.01,-0.07 -0.04,-0.19 l -1.26,-5.07 c -0.1,-0.4 -0.27,-0.72 -1.08,-0.75 -0.05,0 -0.18,-0.01 -0.18,-0.19 0,-0.09 0.06,-0.12 0.14,-0.12 0.32,0 0.67,0.03 1,0.03 0.33,0 0.69,-0.03 1.02,-0.03 0.05,0 0.18,0 0.18,0.2 0,0.11 -0.11,0.11 -0.18,0.11 -0.56,0.01 -0.67,0.21 -0.67,0.44 0,0.07 0.01,0.12 0.04,0.23 l 1.35,5.43 h 0.01 l 0.86,-6.18 c 0.02,-0.12 0.03,-0.23 0.15,-0.23 0.11,0 0.17,0.11 0.21,0.18 l 4.03,6.31 H 232 l -1.42,-5.71 c -0.1,-0.39 -0.12,-0.47 -0.91,-0.47 -0.17,0 -0.28,0 -0.28,-0.19 0,-0.12 0.12,-0.12 0.15,-0.12 0.28,0 0.96,0.03 1.23,0.03 0.41,0 0.84,-0.03 1.25,-0.03 0.06,0 0.19,0 0.19,0.2 0,0.11 -0.09,0.11 -0.28,0.11 -0.37,0 -0.65,0 -0.65,0.18 0,0.04 0,0.06 0.05,0.24 z"
   inkscape:connector-curvature="0"
   style="fill:#000000;stroke-width:0" />
<path
   id="path4182"
   d="m 236.66,715.97 -0.13,-0.09 -0.11,-0.09 -0.11,-0.1 -0.11,-0.1 -0.1,-0.1 -0.09,-0.1 -0.09,-0.1 -0.08,-0.11 -0.08,-0.11 -0.08,-0.11 -0.07,-0.11 -0.07,-0.11 -0.06,-0.12 -0.06,-0.11 -0.05,-0.12 -0.05,-0.11 -0.04,-0.12 -0.05,-0.12 -0.03,-0.11 -0.04,-0.12 -0.03,-0.11 -0.03,-0.12 -0.02,-0.12 -0.02,-0.11 -0.02,-0.11 -0.02,-0.11 -0.01,-0.12 -0.01,-0.1 -0.01,-0.11 0,-0.11 -0.01,-0.1 0,-0.1 c 0,-0.98 0.29,-2.51 1.68,-3.49 0.05,0 0.13,0 0.13,0.09 0,0.04 -0.02,0.05 -0.06,0.1 -0.93,0.84 -1.27,2.02 -1.27,3.29 0,1.88 0.72,2.8 1.29,3.32 0.02,0.03 0.04,0.05 0.04,0.08 0,0.09 -0.08,0.09 -0.13,0.09 z"
   inkscape:connector-curvature="0"
   style="fill:#000000;stroke-width:0" />
<path
   id="path4184"
   d="m 240.89,712.96 0,0.14 0,0.14 -0.01,0.13 -0.01,0.13 -0.01,0.12 -0.01,0.12 -0.02,0.12 -0.02,0.11 -0.03,0.11 -0.03,0.1 -0.03,0.11 -0.04,0.1 -0.04,0.1 -0.05,0.09 -0.05,0.1 -0.03,0.04 -0.03,0.05 c -0.22,0.32 -0.65,0.6 -1.21,0.6 v -0.2 c 0.38,0 0.74,-0.23 0.87,-0.63 0.11,-0.38 0.12,-0.88 0.12,-1.49 0,-0.51 0,-1.03 -0.09,-1.47 -0.14,-0.63 -0.62,-0.79 -0.9,-0.79 h 0 c -0.32,0 -0.74,0.19 -0.88,0.76 -0.1,0.42 -0.1,0.99 -0.1,1.5 0,0.51 0,1.04 0.1,1.42 0.15,0.56 0.6,0.7 0.88,0.7 v 0.2 c -1.62,0 -1.62,-1.91 -1.62,-2.41 0,-0.5 0,-2.36 1.62,-2.36 1.62,0 1.62,1.86 1.62,2.36 z"
   inkscape:connector-curvature="0"
   style="fill:#000000;stroke-width:0" />
<path
   id="path4186"
   d="m 241.9,715.97 -0.01,0 0,0 -0.01,0 0,0 -0.01,0 -0.01,0 0,0 -0.01,0 0,0 -0.01,0 0,-0.01 -0.01,0 0,0 -0.01,0 0,0 -0.01,0 0,0 -0.01,-0.01 0,0 -0.01,0 0,-0.01 -0.01,0 0,0 0,-0.01 0,0 0,0 -0.01,0 0,0 0,-0.01 0,0 0,0 0,-0.01 0,0 0,0 0,0 -0.01,-0.01 0,0 0,0 0,-0.01 0,0 0,-0.01 c 0,-0.03 0.02,-0.05 0.06,-0.1 0.61,-0.55 1.28,-1.49 1.28,-3.29 0,-1.46 -0.46,-2.56 -1.21,-3.25 -0.12,-0.11 -0.13,-0.12 -0.13,-0.15 0,-0.04 0.02,-0.09 0.09,-0.09 0.09,0 0.75,0.46 1.21,1.33 0.31,0.58 0.51,1.33 0.51,2.15 0,0.98 -0.29,2.51 -1.67,3.49 z"
   inkscape:connector-curvature="0"
   style="fill:#000000;stroke-width:0" />
</g>  <g
     style="font-style:normal;font-variant:normal;font-weight:normal;font-stretch:normal;letter-spacing:normal;word-spacing:normal;text-anchor:start;fill:none;stroke:#000000;stroke-linecap:butt;stroke-linejoin:miter;stroke-miterlimit:10.43299961;stroke-opacity:1;stroke-dasharray:none;stroke-dashoffset:0"
     id="g4278"
     transform="matrix(0.5,0,0,-0.5,-54.263234,422.7617)"
     xml:space="preserve"
     stroke-miterlimit="10.433"
     font-style="normal"
     font-variant="normal"
     font-weight="normal"
     font-stretch="normal"
     font-size-adjust="none"
     letter-spacing="normal"
     word-spacing="normal"
     ns0:text="$L$\n"
     ns0:preamble="">
<path
   style="fill:#000000;stroke-width:0"
   inkscape:connector-curvature="0"
   d="m 227.16,713.15 0.01,0.03 0.01,0.03 0,0.03 0.01,0.03 0.01,0.03 0.01,0.03 0.01,0.02 0.01,0.02 0.01,0.03 0.01,0.02 0.02,0.02 0.02,0.02 0.01,0.01 0.02,0.02 0.02,0.01 0.03,0.02 0.03,0.01 0.03,0.01 0.03,0.01 0.03,0.01 0.02,0.01 0.02,0 0.02,0.01 0.02,0 0.03,0.01 0.02,0 0.02,0 0.03,0.01 0.02,0 0.03,0 0.03,0 0.03,0.01 0.03,0 0.03,0 0.03,0 0.03,0 0.04,0 0.03,0 0.04,0.01 0.04,0 0.04,0 0.04,0 0.04,0 0.04,0 c 0.3,0 0.38,0 0.38,0.19 0,0.12 -0.11,0.12 -0.16,0.12 -0.33,0 -1.14,-0.03 -1.47,-0.03 -0.3,0 -1.03,0.03 -1.33,0.03 -0.07,0 -0.18,0 -0.18,-0.2 0,-0.11 0.09,-0.11 0.27,-0.11 0.02,0 0.21,0 0.38,-0.02 0.18,-0.02 0.27,-0.03 0.27,-0.16 0,-0.04 -0.01,-0.07 -0.04,-0.19 L 225,707.9 c -0.1,-0.39 -0.12,-0.47 -0.91,-0.47 -0.17,0 -0.27,0 -0.27,-0.2 0,-0.11 0.09,-0.11 0.27,-0.11 h 4.61 c 0.24,0 0.25,0 0.31,0.17 l 0.79,2.15 c 0.04,0.11 0.04,0.13 0.04,0.14 0,0.04 -0.03,0.11 -0.12,0.11 -0.09,0 -0.1,-0.05 -0.17,-0.21 -0.34,-0.91 -0.78,-2.05 -2.5,-2.05 h -0.94 c -0.14,0 -0.16,0 -0.22,0.01 -0.1,0.01 -0.13,0.02 -0.13,0.1 0,0.03 0,0.05 0.05,0.23 z"
   id="path4280" />
</g>  <g
     ns0:preamble=""
     ns0:text="$M^*$\n"
     word-spacing="normal"
     letter-spacing="normal"
     font-size-adjust="none"
     font-stretch="normal"
     font-weight="normal"
     font-variant="normal"
     font-style="normal"
     stroke-miterlimit="10.433"
     xml:space="preserve"
     transform="matrix(0.5,0,0,-0.5,-56.283539,376.79976)"
     id="g4376"
     style="font-style:normal;font-variant:normal;font-weight:normal;font-stretch:normal;letter-spacing:normal;word-spacing:normal;text-anchor:start;fill:none;stroke:#000000;stroke-linecap:butt;stroke-linejoin:miter;stroke-miterlimit:10.43299961;stroke-opacity:1;stroke-dasharray:none;stroke-dashoffset:0">
<path
   id="path4378"
   d="m 232.66,713.16 0.01,0.03 0,0.03 0.01,0.03 0.01,0.03 0.01,0.03 0.01,0.03 0.01,0.02 0,0.02 0.01,0.02 0.02,0.02 0.01,0.02 0.01,0.02 0.02,0.02 0.01,0.01 0.02,0.02 0.02,0.01 0.02,0.02 0.02,0.01 0.03,0.01 0.03,0.01 0.03,0.01 0.02,0 0.01,0 0.02,0.01 0.02,0 0.02,0 0.02,0.01 0.02,0 0.02,0 0.02,0 0.03,0.01 0.02,0 0.02,0 0.03,0 0.03,0 0.02,0 0.03,0.01 0.03,0 0.03,0 0.03,0 0.04,0 0.03,0 0.03,0 c 0.23,0 0.32,0 0.32,0.2 0,0.11 -0.1,0.11 -0.27,0.11 h -1.31 c -0.26,0 -0.27,0 -0.39,-0.19 l -3.63,-5.68 -0.78,5.64 c -0.03,0.23 -0.05,0.23 -0.31,0.23 h -1.37 c -0.19,0 -0.29,0 -0.29,-0.19 0,-0.12 0.08,-0.12 0.28,-0.12 0.13,0 0.31,-0.01 0.43,-0.02 0.16,-0.02 0.22,-0.05 0.22,-0.16 0,-0.04 -0.01,-0.07 -0.04,-0.19 l -1.26,-5.07 c -0.1,-0.4 -0.27,-0.72 -1.08,-0.75 -0.05,0 -0.18,-0.01 -0.18,-0.19 0,-0.09 0.06,-0.12 0.14,-0.12 0.32,0 0.67,0.03 1,0.03 0.33,0 0.69,-0.03 1.02,-0.03 0.05,0 0.18,0 0.18,0.2 0,0.11 -0.11,0.11 -0.18,0.11 -0.56,0.01 -0.67,0.21 -0.67,0.44 0,0.07 0.01,0.12 0.04,0.23 l 1.35,5.43 h 0.01 l 0.86,-6.18 c 0.02,-0.12 0.03,-0.23 0.15,-0.23 0.11,0 0.17,0.11 0.21,0.18 l 4.03,6.31 H 232 l -1.42,-5.71 c -0.1,-0.39 -0.12,-0.47 -0.91,-0.47 -0.17,0 -0.28,0 -0.28,-0.19 0,-0.12 0.12,-0.12 0.15,-0.12 0.28,0 0.96,0.03 1.23,0.03 0.41,0 0.84,-0.03 1.25,-0.03 0.06,0 0.19,0 0.19,0.2 0,0.11 -0.09,0.11 -0.28,0.11 -0.37,0 -0.65,0 -0.65,0.18 0,0.04 0,0.06 0.05,0.24 z"
   inkscape:connector-curvature="0"
   style="fill:#000000;stroke-width:0" />
<path
   id="path4380"
   d="m 236.43,712.47 0.06,0.03 0.05,0.02 0.05,0.02 0.04,0.02 0.05,0.02 0.04,0.02 0.05,0.02 0.04,0.02 0.04,0.01 0.03,0.02 0.04,0.01 0.04,0.02 0.03,0.01 0.03,0.02 0.03,0.01 0.03,0.01 0.03,0.02 0.03,0.01 0.03,0.01 0.02,0.01 0.03,0.01 0.02,0.01 0.02,0.01 0.03,0.01 0.02,0.01 0.02,0.01 0.04,0.01 0.03,0.02 0.04,0.02 c 0.13,0.05 0.19,0.08 0.19,0.21 0,0.12 -0.09,0.23 -0.21,0.23 -0.05,0 -0.07,0 -0.15,-0.07 l -0.95,-0.63 0.11,1.03 c 0.01,0.13 0,0.3 -0.21,0.3 -0.09,0 -0.22,-0.06 -0.22,-0.21 0,-0.06 0.03,-0.27 0.04,-0.34 0.01,-0.12 0.06,-0.62 0.07,-0.78 l -0.94,0.63 c -0.07,0.05 -0.09,0.07 -0.15,0.07 -0.13,0 -0.22,-0.11 -0.22,-0.23 0,-0.14 0.08,-0.17 0.15,-0.2 l 1.05,-0.44 c -0.57,-0.25 -0.83,-0.35 -1,-0.43 -0.14,-0.06 -0.2,-0.08 -0.2,-0.22 0,-0.12 0.09,-0.22 0.22,-0.22 0.05,0 0.06,0 0.14,0.06 l 0.95,0.64 -0.11,-1.13 c 0,-0.15 0.13,-0.21 0.22,-0.21 0.08,0 0.21,0.06 0.21,0.21 0,0.07 -0.03,0.28 -0.03,0.35 -0.02,0.11 -0.06,0.62 -0.08,0.78 l 0.84,-0.56 c 0.18,-0.14 0.19,-0.14 0.26,-0.14 0.12,0 0.21,0.1 0.21,0.22 0,0.14 -0.08,0.18 -0.14,0.2 z"
   inkscape:connector-curvature="0"
   style="fill:#000000;stroke-width:0" />
</g>  <g
     style="font-style:normal;font-variant:normal;font-weight:normal;font-stretch:normal;letter-spacing:normal;word-spacing:normal;text-anchor:start;fill:none;stroke:#000000;stroke-linecap:butt;stroke-linejoin:miter;stroke-miterlimit:10.43299961;stroke-opacity:1;stroke-dasharray:none;stroke-dashoffset:0"
     id="g4482"
     transform="matrix(0.5,0,0,-0.5,-41.383789,377.80992)"
     xml:space="preserve"
     stroke-miterlimit="10.433"
     font-style="normal"
     font-variant="normal"
     font-weight="normal"
     font-stretch="normal"
     font-size-adjust="none"
     letter-spacing="normal"
     word-spacing="normal"
     ns0:text="$M_0$\n"
     ns0:preamble="">
<path
   style="fill:#000000;stroke-width:0"
   inkscape:connector-curvature="0"
   d="m 232.66,713.16 0.01,0.03 0,0.03 0.01,0.03 0.01,0.03 0.01,0.03 0.01,0.03 0.01,0.02 0,0.02 0.01,0.02 0.02,0.02 0.01,0.02 0.01,0.02 0.02,0.02 0.01,0.01 0.02,0.02 0.02,0.01 0.02,0.02 0.02,0.01 0.03,0.01 0.03,0.01 0.03,0.01 0.02,0 0.01,0 0.02,0.01 0.02,0 0.02,0 0.02,0.01 0.02,0 0.02,0 0.02,0 0.03,0.01 0.02,0 0.02,0 0.03,0 0.03,0 0.02,0 0.03,0.01 0.03,0 0.03,0 0.03,0 0.04,0 0.03,0 0.03,0 c 0.23,0 0.32,0 0.32,0.2 0,0.11 -0.1,0.11 -0.27,0.11 h -1.31 c -0.26,0 -0.27,0 -0.39,-0.19 l -3.63,-5.68 -0.78,5.64 c -0.03,0.23 -0.05,0.23 -0.31,0.23 h -1.37 c -0.19,0 -0.29,0 -0.29,-0.19 0,-0.12 0.08,-0.12 0.28,-0.12 0.13,0 0.31,-0.01 0.43,-0.02 0.16,-0.02 0.22,-0.05 0.22,-0.16 0,-0.04 -0.01,-0.07 -0.04,-0.19 l -1.26,-5.07 c -0.1,-0.4 -0.27,-0.72 -1.08,-0.75 -0.05,0 -0.18,-0.01 -0.18,-0.19 0,-0.09 0.06,-0.12 0.14,-0.12 0.32,0 0.67,0.03 1,0.03 0.33,0 0.69,-0.03 1.02,-0.03 0.05,0 0.18,0 0.18,0.2 0,0.11 -0.11,0.11 -0.18,0.11 -0.56,0.01 -0.67,0.21 -0.67,0.44 0,0.07 0.01,0.12 0.04,0.23 l 1.35,5.43 h 0.01 l 0.86,-6.18 c 0.02,-0.12 0.03,-0.23 0.15,-0.23 0.11,0 0.17,0.11 0.21,0.18 l 4.03,6.31 H 232 l -1.42,-5.71 c -0.1,-0.39 -0.12,-0.47 -0.91,-0.47 -0.17,0 -0.28,0 -0.28,-0.19 0,-0.12 0.12,-0.12 0.15,-0.12 0.28,0 0.96,0.03 1.23,0.03 0.41,0 0.84,-0.03 1.25,-0.03 0.06,0 0.19,0 0.19,0.2 0,0.11 -0.09,0.11 -0.28,0.11 -0.37,0 -0.65,0 -0.65,0.18 0,0.04 0,0.06 0.05,0.24 z"
   id="path4484" />
<path
   style="fill:#000000;stroke-width:0"
   inkscape:connector-curvature="0"
   d="m 236.7,707.85 0,0.15 -0.01,0.13 0,0.13 -0.01,0.13 -0.01,0.13 -0.02,0.11 -0.02,0.12 -0.02,0.11 -0.02,0.11 -0.03,0.11 -0.04,0.1 -0.03,0.1 -0.05,0.1 -0.04,0.09 -0.06,0.1 -0.02,0.05 -0.03,0.04 c -0.22,0.32 -0.65,0.6 -1.21,0.6 -1.62,0 -1.62,-1.9 -1.62,-2.41 0,-0.5 0,-2.36 1.62,-2.36 v 0.2 c -0.32,0 -0.75,0.18 -0.88,0.76 -0.1,0.41 -0.1,0.98 -0.1,1.5 0,0.5 0,1.03 0.1,1.42 0.15,0.55 0.59,0.7 0.88,0.7 0.38,0 0.74,-0.23 0.87,-0.64 0.11,-0.38 0.11,-0.88 0.11,-1.48 0,-0.52 0,-1.04 -0.09,-1.48 -0.14,-0.63 -0.61,-0.78 -0.89,-0.78 h 0 v -0.2 c 1.62,0 1.62,1.86 1.62,2.36 z"
   id="path4486" />
</g>  <g
     ns0:preamble=""
     ns0:text="$M_1$\n"
     word-spacing="normal"
     letter-spacing="normal"
     font-size-adjust="none"
     font-stretch="normal"
     font-weight="normal"
     font-variant="normal"
     font-style="normal"
     stroke-miterlimit="10.433"
     xml:space="preserve"
     transform="matrix(0.5,0,0,-0.5,-41.888865,393.21474)"
     id="g4594"
     style="font-style:normal;font-variant:normal;font-weight:normal;font-stretch:normal;letter-spacing:normal;word-spacing:normal;text-anchor:start;fill:none;stroke:#000000;stroke-linecap:butt;stroke-linejoin:miter;stroke-miterlimit:10.43299961;stroke-opacity:1;stroke-dasharray:none;stroke-dashoffset:0">
<path
   id="path4596"
   d="m 232.66,713.16 0.01,0.03 0,0.03 0.01,0.03 0.01,0.03 0.01,0.03 0.01,0.03 0.01,0.02 0,0.02 0.01,0.02 0.02,0.02 0.01,0.02 0.01,0.02 0.02,0.02 0.01,0.01 0.02,0.02 0.02,0.01 0.02,0.02 0.02,0.01 0.03,0.01 0.03,0.01 0.03,0.01 0.02,0 0.01,0 0.02,0.01 0.02,0 0.02,0 0.02,0.01 0.02,0 0.02,0 0.02,0 0.03,0.01 0.02,0 0.02,0 0.03,0 0.03,0 0.02,0 0.03,0.01 0.03,0 0.03,0 0.03,0 0.04,0 0.03,0 0.03,0 c 0.23,0 0.32,0 0.32,0.2 0,0.11 -0.1,0.11 -0.27,0.11 h -1.31 c -0.26,0 -0.27,0 -0.39,-0.19 l -3.63,-5.68 -0.78,5.64 c -0.03,0.23 -0.05,0.23 -0.31,0.23 h -1.37 c -0.19,0 -0.29,0 -0.29,-0.19 0,-0.12 0.08,-0.12 0.28,-0.12 0.13,0 0.31,-0.01 0.43,-0.02 0.16,-0.02 0.22,-0.05 0.22,-0.16 0,-0.04 -0.01,-0.07 -0.04,-0.19 l -1.26,-5.07 c -0.1,-0.4 -0.27,-0.72 -1.08,-0.75 -0.05,0 -0.18,-0.01 -0.18,-0.19 0,-0.09 0.06,-0.12 0.14,-0.12 0.32,0 0.67,0.03 1,0.03 0.33,0 0.69,-0.03 1.02,-0.03 0.05,0 0.18,0 0.18,0.2 0,0.11 -0.11,0.11 -0.18,0.11 -0.56,0.01 -0.67,0.21 -0.67,0.44 0,0.07 0.01,0.12 0.04,0.23 l 1.35,5.43 h 0.01 l 0.86,-6.18 c 0.02,-0.12 0.03,-0.23 0.15,-0.23 0.11,0 0.17,0.11 0.21,0.18 l 4.03,6.31 H 232 l -1.42,-5.71 c -0.1,-0.39 -0.12,-0.47 -0.91,-0.47 -0.17,0 -0.28,0 -0.28,-0.19 0,-0.12 0.12,-0.12 0.15,-0.12 0.28,0 0.96,0.03 1.23,0.03 0.41,0 0.84,-0.03 1.25,-0.03 0.06,0 0.19,0 0.19,0.2 0,0.11 -0.09,0.11 -0.28,0.11 -0.37,0 -0.65,0 -0.65,0.18 0,0.04 0,0.06 0.05,0.24 z"
   inkscape:connector-curvature="0"
   style="fill:#000000;stroke-width:0" />
<path
   id="path4598"
   d="m 235.44,710.07 0,0 0,0.01 0,0.01 0,0.01 0,0.01 0,0 0,0.01 0,0.01 -0.01,0 0,0.01 0,0.01 0,0 0,0.01 0,0 0,0.01 0,0.01 0,0 0,0.01 0,0 -0.01,0.01 0,0.01 0,0.01 -0.01,0 0,0.01 -0.01,0 0,0.01 -0.01,0 0,0.01 -0.01,0 -0.01,0 -0.01,0 -0.01,0.01 0,0 -0.01,0 0,0 -0.01,0 -0.01,0 0,0 -0.01,0 0,0 -0.01,0 -0.01,0 -0.01,0 0,0 -0.01,0 -0.01,0 -0.01,0 -0.01,0 0,0 -0.01,0 c -0.45,-0.44 -1.08,-0.45 -1.37,-0.45 v -0.25 c 0.17,0 0.63,0 1.01,0.2 v -3.56 c 0,-0.23 0,-0.32 -0.7,-0.32 h -0.26 v -0.25 c 0.12,0.01 0.98,0.03 1.24,0.03 0.22,0 1.09,-0.02 1.25,-0.03 v 0.25 h -0.27 c -0.69,0 -0.69,0.09 -0.69,0.32 z"
   inkscape:connector-curvature="0"
   style="fill:#000000;stroke-width:0" />
</g></svg>
